<?xml version="1.0" standalone="no"?>
<!DOCTYPE svg PUBLIC "-//W3C//DTD SVG 20010904//EN"
 "http://www.w3.org/TR/2001/REC-SVG-20010904/DTD/svg10.dtd">
<svg version="1.0" xmlns="http://www.w3.org/2000/svg"
 width="1351.000000pt" height="1351.000000pt" viewBox="0 0 1351.000000 1351.000000"
 preserveAspectRatio="xMidYMid meet">
<metadata>
Created by potrace 1.14, written by Peter Selinger 2001-2017
</metadata>
<g transform="translate(0.000000,1351.000000) scale(0.100000,-0.100000)"
fill="#000000" stroke="none">
<path d="M6508 13505 c-2 -1 -102 -5 -223 -9 -121 -4 -236 -9 -255 -10 -19 -2
-87 -7 -150 -10 -63 -4 -128 -9 -145 -11 -30 -4 -127 -13 -207 -20 -497 -41
-1374 -196 -1891 -334 -374 -101 -491 -135 -817 -243 -410 -134 -860 -311
-1266 -498 -183 -84 -760 -373 -776 -388 -4 -4 -10 -41 -13 -82 -3 -41 -8 -86
-10 -100 -2 -14 -7 -77 -11 -140 -3 -63 -8 -122 -9 -131 -2 -8 -6 -85 -10
-170 -4 -85 -9 -174 -11 -199 -5 -58 -5 -878 0 -950 2 -30 7 -118 11 -195 3
-77 8 -160 10 -185 2 -25 7 -83 10 -130 3 -47 8 -101 10 -120 2 -19 7 -64 10
-100 7 -79 25 -246 30 -280 2 -14 7 -50 10 -80 68 -590 260 -1491 435 -2045
10 -33 42 -134 70 -225 102 -325 342 -946 484 -1254 20 -43 36 -79 36 -81 0
-5 121 -257 179 -375 113 -226 197 -384 301 -565 34 -60 71 -126 82 -145 87
-153 271 -447 413 -660 209 -313 383 -551 625 -854 232 -290 352 -430 625
-725 81 -89 498 -506 600 -601 566 -530 1189 -1010 1895 -1459 l205 -130 27
17 c223 137 522 334 711 467 71 49 139 97 151 105 154 107 757 584 852 675 6
5 36 32 68 59 31 28 69 61 85 75 15 14 79 73 142 130 206 189 653 642 834 845
39 44 75 84 80 90 8 9 173 203 269 316 18 22 76 94 215 269 192 241 512 698
691 984 30 49 71 114 91 145 218 343 572 1015 767 1458 490 1110 817 2284 966
3464 14 107 27 224 31 260 3 36 8 76 10 90 2 14 7 66 10 115 4 50 8 101 10
115 2 14 7 75 10 135 4 61 9 128 11 150 22 233 22 1302 -1 1446 -2 13 -6 77
-10 142 -3 65 -8 126 -10 135 -1 10 -6 62 -10 117 -8 118 -14 167 -23 177 -13
13 -555 286 -730 367 -939 437 -2044 788 -3014 956 -49 8 -127 22 -175 30 -86
15 -374 58 -463 69 -223 28 -419 48 -580 61 -36 3 -92 7 -125 10 -65 5 -174
11 -361 21 -114 6 -771 13 -776 9z"/>
</g>
</svg>
